<?xml version="1.0" encoding="UTF-8"?>
<!DOCTYPE svg PUBLIC "-//W3C//DTD SVG 1.1//EN" "http://www.w3.org/Graphics/SVG/1.1/DTD/svg11.dtd">
<svg xmlns="http://www.w3.org/2000/svg" version="1.1" width="46px" height="46px" style="shape-rendering:geometricPrecision; text-rendering:geometricPrecision; image-rendering:optimizeQuality; fill-rule:evenodd; clip-rule:evenodd" xmlns:xlink="http://www.w3.org/1999/xlink">
<g><path style="opacity:0.72" fill="#fefffe" d="M 23.5,-0.5 C 25.5,-0.5 27.5,-0.5 29.5,-0.5C 36.5,3.16667 41.8333,8.5 45.5,15.5C 45.5,17.5 45.5,19.5 45.5,21.5C 44.5,21.5 43.5,21.5 42.5,21.5C 40.5,10.8333 34.1667,4.5 23.5,2.5C 23.5,1.5 23.5,0.5 23.5,-0.5 Z"/></g>
<g><path style="opacity:0.732" fill="#fefffe" d="M 36.5,45.5 C 33.5,45.5 30.5,45.5 27.5,45.5C 14.5,39.8333 5.16667,30.5 -0.5,17.5C -0.5,14.5 -0.5,11.5 -0.5,8.5C 1.30904,5.86073 3.64238,3.69406 6.5,2C 8.28891,1.47954 9.95558,1.81288 11.5,3C 13.6667,5.16667 15.8333,7.33333 18,9.5C 19.2931,13.5821 18.1265,16.7487 14.5,19C 17.6667,23.5 21.5,27.3333 26,30.5C 28.2513,26.8735 31.4179,25.7069 35.5,27C 38.7306,29.7273 41.3972,32.894 43.5,36.5C 41.8319,40.1269 39.4986,43.1269 36.5,45.5 Z M 7.5,5.5 C 10.7441,7.07126 13.4108,9.40459 15.5,12.5C 13.6278,14.5351 11.9611,16.7017 10.5,19C 13.6847,26.3509 19.018,31.5175 26.5,34.5C 28.5,32.8333 30.5,31.1667 32.5,29.5C 42.0093,36.162 41.0093,40.3287 29.5,42C 15.6474,36.8153 6.64742,27.1486 2.5,13C 3.54628,10.1142 5.21295,7.61415 7.5,5.5 Z"/></g>
<g><path style="opacity:0.694" fill="#fefffe" d="M 23.5,7.5 C 30.9122,8.24243 35.5789,12.2424 37.5,19.5C 37.4435,20.737 36.9435,21.737 36,22.5C 34.1978,19.1165 32.0311,15.9499 29.5,13C 27,12.1146 24.6667,10.9479 22.5,9.5C 22.8627,8.81654 23.1961,8.14987 23.5,7.5 Z"/></g>
</svg>
