<?xml version="1.0" encoding="UTF-8"?>
<!DOCTYPE svg PUBLIC "-//W3C//DTD SVG 1.1//EN" "http://www.w3.org/Graphics/SVG/1.1/DTD/svg11.dtd">
<svg xmlns="http://www.w3.org/2000/svg" version="1.1" width="256px" height="256px" style="shape-rendering:geometricPrecision; text-rendering:geometricPrecision; image-rendering:optimizeQuality; fill-rule:evenodd; clip-rule:evenodd" xmlns:xlink="http://www.w3.org/1999/xlink">
<g><path style="opacity:1" fill="#ae8559" d="M 130.5,19.5 C 137.694,20.2782 139.194,23.6116 135,29.5C 133.185,31.4049 131.185,33.0716 129,34.5C 127.543,37.366 127.21,40.366 128,43.5C 131.703,46.8675 135.036,50.5342 138,54.5C 141.341,64.4792 138.508,72.1459 129.5,77.5C 126.574,76.7433 124.907,74.91 124.5,72C 125.541,69.2768 127.041,66.7768 129,64.5C 129.667,62.8333 129.667,61.1667 129,59.5C 126.37,55.8683 123.37,52.535 120,49.5C 116.667,43.1667 116.667,36.8333 120,30.5C 123.588,26.9477 127.088,23.281 130.5,19.5 Z"/></g>
<g><path style="opacity:1" fill="#ae8559" d="M 81.5,40.5 C 87.4992,40.002 89.6659,42.6687 88,48.5C 83.8485,51.8072 80.6819,55.8072 78.5,60.5C 80.6267,65.1936 83.7933,69.1936 88,72.5C 93.1315,81.82 91.6315,89.9867 83.5,97C 79.4957,98.327 76.829,96.9937 75.5,93C 77.7162,89.6187 79.7162,86.1187 81.5,82.5C 78.976,77.4659 75.476,73.1326 71,69.5C 67.4738,62.9805 67.8072,56.6472 72,50.5C 75.3709,47.2975 78.5375,43.9641 81.5,40.5 Z"/></g>
<g><path style="opacity:1" fill="#ad8558" d="M 178.5,40.5 C 185.375,40.3072 187.209,43.3072 184,49.5C 181.333,52.1667 178.667,54.8333 176,57.5C 175.333,59.5 175.333,61.5 176,63.5C 179.646,66.8157 182.979,70.4824 186,74.5C 189.386,83.3625 187.553,90.8625 180.5,97C 176.26,98.5389 173.593,97.2056 172.5,93C 173.205,90.293 174.705,88.1264 177,86.5C 177.667,84.1667 177.667,81.8333 177,79.5C 174,76.1667 171,72.8333 168,69.5C 164.667,63.5 164.667,57.5 168,51.5C 171.704,47.9643 175.204,44.2976 178.5,40.5 Z"/></g>
<g><path style="opacity:1" fill="#ac8358" d="M 106.5,108.5 C 107.833,108.5 109.167,108.5 110.5,108.5C 110.737,107.209 110.404,106.209 109.5,105.5C 108.002,102.169 107.002,98.6693 106.5,95C 106.354,92.9658 107.02,91.2991 108.5,90C 121.512,84.0033 134.512,84.0033 147.5,90C 149.357,91.1824 150.357,92.849 150.5,95C 149.561,99.1508 148.228,103.151 146.5,107C 182.434,114.608 207.934,135.108 223,168.5C 227.353,179.433 229.853,190.766 230.5,202.5C 251.294,198.12 256.461,205.12 246,223.5C 238.107,233.079 227.94,237.079 215.5,235.5C 210.722,235.609 206.056,235.109 201.5,234C 199.987,231.084 200.32,228.418 202.5,226C 211.893,225.887 221.226,225.22 230.5,224C 235.196,221.635 238.529,217.968 240.5,213C 165.831,212.167 91.1644,212.333 16.5,213.5C 18.7981,219.631 23.1315,223.465 29.5,225C 57.8333,225.333 86.1667,225.667 114.5,226C 118.5,229 118.5,232 114.5,235C 85.8333,235.667 57.1667,235.667 28.5,235C 14.9216,231.367 7.2549,222.534 5.5,208.5C 5.40616,206.088 6.40616,204.255 8.5,203C 14.4908,202.501 20.4908,202.334 26.5,202.5C 30.1107,160.395 51.1107,130.561 89.5,113C 94.9934,110.779 100.66,109.279 106.5,108.5 Z M 137.5,96.5 C 138.167,97.1667 138.833,97.8333 139.5,98.5C 138.262,100.214 137.595,102.214 137.5,104.5C 131.591,105.455 125.591,105.789 119.5,105.5C 119.244,103.063 118.577,100.729 117.5,98.5C 117.709,97.914 118.043,97.414 118.5,97C 124.795,95.1705 131.128,95.0038 137.5,96.5 Z M 119.5,115.5 C 162.454,114.213 193.621,132.547 213,170.5C 217.347,180.734 219.847,191.4 220.5,202.5C 159.167,202.5 97.8333,202.5 36.5,202.5C 39.8128,163.039 59.8128,135.872 96.5,121C 104.194,118.7 111.86,116.866 119.5,115.5 Z"/></g>
<g><path style="opacity:0.753" fill="#7c5f3f" d="M 137.5,96.5 C 138.675,96.281 139.675,96.6143 140.5,97.5C 140.376,98.1067 140.043,98.44 139.5,98.5C 138.833,97.8333 138.167,97.1667 137.5,96.5 Z"/></g>
<g><path style="opacity:0.502" fill="#5d482f" d="M 137.5,104.5 C 134.913,105.816 131.913,106.483 128.5,106.5C 125.314,106.498 122.314,106.165 119.5,105.5C 125.591,105.789 131.591,105.455 137.5,104.5 Z"/></g>
<g><path style="opacity:0.502" fill="#5d482f" d="M 109.5,105.5 C 110.404,106.209 110.737,107.209 110.5,108.5C 109.167,108.5 107.833,108.5 106.5,108.5C 107.9,107.9 108.9,106.9 109.5,105.5 Z"/></g>
<g><path style="opacity:1" fill="#a67f55" d="M 134.5,225.5 C 139.179,225.334 143.845,225.501 148.5,226C 152.5,229 152.5,232 148.5,235C 143.833,235.667 139.167,235.667 134.5,235C 130.581,231.84 130.581,228.673 134.5,225.5 Z"/></g>
<g><path style="opacity:1" fill="#a67f54" d="M 168.5,225.5 C 173.511,225.334 178.511,225.501 183.5,226C 186.167,229 186.167,232 183.5,235C 178.5,235.667 173.5,235.667 168.5,235C 164.581,231.84 164.581,228.673 168.5,225.5 Z"/></g>
</svg>
