<?xml version="1.0" encoding="UTF-8"?>
<!DOCTYPE svg PUBLIC "-//W3C//DTD SVG 1.1//EN" "http://www.w3.org/Graphics/SVG/1.1/DTD/svg11.dtd">
<svg xmlns="http://www.w3.org/2000/svg" version="1.1" width="256px" height="256px" style="shape-rendering:geometricPrecision; text-rendering:geometricPrecision; image-rendering:optimizeQuality; fill-rule:evenodd; clip-rule:evenodd" xmlns:xlink="http://www.w3.org/1999/xlink">
<g><path style="opacity:1" fill="#ae8559" d="M 85.5,4.5 C 91.661,3.33148 96.4943,5.33148 100,10.5C 102.251,18.4182 104.251,26.4182 106,34.5C 109.5,43.3333 115.667,49.5 124.5,53C 132.582,54.7488 140.582,56.7488 148.5,59C 155.978,65.2325 156.311,71.8992 149.5,79C 140.881,81.458 132.215,83.7914 123.5,86C 114.088,90.4092 107.922,97.5759 105,107.5C 103.587,114.564 101.921,121.564 100,128.5C 92.701,136.114 85.701,135.781 79,127.5C 77.0793,120.564 75.4127,113.564 74,106.5C 71.3301,96.4974 65.1634,89.664 55.5,86C 47.5654,83.7463 39.5654,81.7463 31.5,80C 22.8746,73.4364 22.5413,66.4364 30.5,59C 38.4182,56.7488 46.4182,54.7488 54.5,53C 64.0902,49.0772 70.5902,42.2438 74,32.5C 75.54,25.1329 77.2066,17.7995 79,10.5C 81.0627,8.26589 83.2294,6.26589 85.5,4.5 Z M 142.5,67.5 C 143.11,68.391 143.443,69.391 143.5,70.5C 111.257,72.9093 93.7572,90.2427 91,122.5C 90.586,122.957 90.086,123.291 89.5,123.5C 87.2748,115.553 85.1081,107.553 83,99.5C 77.8333,89 70,81.1667 59.5,76C 51.4521,73.8925 43.4521,71.7259 35.5,69.5C 35.7093,68.914 36.0426,68.414 36.5,68C 49.4276,66.805 61.0943,62.4717 71.5,55C 76.502,50.3285 80.3354,44.8285 83,38.5C 84.9856,30.7113 87.1523,23.0447 89.5,15.5C 90.086,15.7093 90.586,16.0426 91,16.5C 93.5242,48.3364 110.691,65.3364 142.5,67.5 Z"/></g>
<g><path style="opacity:1" fill="#a67f55" d="M 193.5,5.5 C 196.044,5.10433 198.211,5.77099 200,7.5C 200.667,12.8333 200.667,18.1667 200,23.5C 197,27.5 194,27.5 191,23.5C 190.333,18.5 190.333,13.5 191,8.5C 192.045,7.62656 192.878,6.62656 193.5,5.5 Z"/></g>
<g><path style="opacity:1" fill="#a67f55" d="M 174.5,24.5 C 179.511,24.3341 184.511,24.5007 189.5,25C 193.327,28.0947 193.327,31.0947 189.5,34C 184.167,34.6667 178.833,34.6667 173.5,34C 170.675,30.4764 171.008,27.3097 174.5,24.5 Z"/></g>
<g><path style="opacity:1" fill="#a57e54" d="M 201.5,24.5 C 206.844,24.334 212.177,24.5006 217.5,25C 220.167,28 220.167,31 217.5,34C 212.167,34.6667 206.833,34.6667 201.5,34C 198.888,30.8359 198.888,27.6693 201.5,24.5 Z"/></g>
<g><path style="opacity:1" fill="#a67f54" d="M 195.5,32.5 C 197.229,33.1175 198.729,34.1175 200,35.5C 200.667,40.8333 200.667,46.1667 200,51.5C 197,54.1667 194,54.1667 191,51.5C 190.333,46.1667 190.333,40.8333 191,35.5C 192.409,34.2189 193.909,33.2189 195.5,32.5 Z"/></g>
<g><path style="opacity:0.753" fill="#795d3e" d="M 142.5,67.5 C 144.552,68.0527 144.885,69.0527 143.5,70.5C 143.443,69.391 143.11,68.391 142.5,67.5 Z"/></g>
<g><path style="opacity:1" fill="#af8659" d="M 255.5,117.5 C 255.5,121.5 255.5,125.5 255.5,129.5C 253.66,131.168 251.66,132.668 249.5,134C 240.839,134.828 232.839,137.495 225.5,142C 223.273,144.564 221.439,147.397 220,150.5C 218.331,156.85 216.664,163.183 215,169.5C 209,176.167 203,176.167 197,169.5C 195.336,163.183 193.669,156.85 192,150.5C 189.833,144.333 185.667,140.167 179.5,138C 173.15,136.331 166.817,134.664 160.5,133C 153.973,127.927 153.307,122.26 158.5,116C 165.3,113.372 172.3,111.372 179.5,110C 185.333,107.5 189.5,103.333 192,97.5C 193.372,90.3003 195.372,83.3003 198,76.5C 203.333,71.1667 208.667,71.1667 214,76.5C 216.462,83.3428 218.462,90.3428 220,97.5C 222.5,103.333 226.667,107.5 232.5,110C 238.132,111.46 243.799,112.793 249.5,114C 251.692,114.926 253.692,116.093 255.5,117.5 Z M 205.5,84.5 C 208.31,108.142 221.643,121.309 245.5,124C 221.667,126.5 208.5,139.667 206,163.5C 203.5,139.667 190.333,126.5 166.5,124C 190.459,121.542 203.459,108.375 205.5,84.5 Z"/></g>
<g><path style="opacity:1" fill="#a57e54" d="M 19.5,154.5 C 22.3646,154.055 24.8646,154.722 27,156.5C 27.6667,161.833 27.6667,167.167 27,172.5C 24,175.167 21,175.167 18,172.5C 17.3333,167.167 17.3333,161.833 18,156.5C 18.7172,155.956 19.2172,155.289 19.5,154.5 Z"/></g>
<g><path style="opacity:1" fill="#b1885a" d="M 116.5,165.5 C 120.803,164.796 124.303,166.13 127,169.5C 128.401,174.455 130.401,179.122 133,183.5C 137.058,186.3 141.558,188.134 146.5,189C 153.017,194.376 153.017,199.71 146.5,205C 140.273,205.959 135.106,208.793 131,213.5C 129.84,218.339 128.007,222.839 125.5,227C 119.643,229.835 114.81,228.669 111,223.5C 109.528,212.694 103.361,206.528 92.5,205C 85.9831,199.71 85.9831,194.376 92.5,189C 97.4416,188.134 101.942,186.3 106,183.5C 108.773,179.185 110.773,174.518 112,169.5C 113.397,167.93 114.897,166.596 116.5,165.5 Z M 118.5,182.5 C 119.167,182.5 119.833,182.5 120.5,182.5C 123.595,189.263 128.595,193.93 135.5,196.5C 134.833,197.167 134.167,197.833 133.5,198.5C 127.067,201.264 122.734,205.931 120.5,212.5C 119.833,212.5 119.167,212.5 118.5,212.5C 116.266,205.931 111.933,201.264 105.5,198.5C 104.833,197.833 104.167,197.167 103.5,196.5C 110.836,194.333 115.836,189.666 118.5,182.5 Z"/></g>
<g><path style="opacity:1" fill="#a78055" d="M -0.5,182.5 C -0.5,179.833 -0.5,177.167 -0.5,174.5C 5.08402,173.382 10.7507,173.215 16.5,174C 19.1667,177 19.1667,180 16.5,183C 10.7507,183.785 5.08402,183.618 -0.5,182.5 Z"/></g>
<g><path style="opacity:1" fill="#a67f55" d="M 28.5,173.5 C 33.8437,173.334 39.1771,173.501 44.5,174C 47.3112,177.294 46.9779,180.294 43.5,183C 38.5,183.667 33.5,183.667 28.5,183C 24.5676,179.75 24.5676,176.584 28.5,173.5 Z"/></g>
<g><path style="opacity:0.502" fill="#5d482f" d="M 120.5,182.5 C 119.833,182.5 119.167,182.5 118.5,182.5C 119.596,178.711 120.263,178.711 120.5,182.5 Z"/></g>
<g><path style="opacity:1" fill="#a67f55" d="M 20.5,181.5 C 23.0991,181.549 25.2658,182.549 27,184.5C 27.6667,189.5 27.6667,194.5 27,199.5C 24.2935,202.978 21.2935,203.311 18,200.5C 17.3333,195.167 17.3333,189.833 18,184.5C 19.045,183.627 19.8783,182.627 20.5,181.5 Z"/></g>
<g><path style="opacity:0.502" fill="#684f35" d="M 103.5,196.5 C 104.167,197.167 104.833,197.833 105.5,198.5C 104.325,198.719 103.325,198.386 102.5,197.5C 102.624,196.893 102.957,196.56 103.5,196.5 Z"/></g>
<g><path style="opacity:0.502" fill="#6a5136" d="M 135.5,196.5 C 136.239,196.369 136.906,196.536 137.5,197C 136.437,198.188 135.103,198.688 133.5,198.5C 134.167,197.833 134.833,197.167 135.5,196.5 Z"/></g>
<g><path style="opacity:1" fill="#a78055" d="M 194.5,201.5 C 199.817,203.119 201.817,206.785 200.5,212.5C 201.776,217.764 199.942,221.098 195,222.5C 193.289,222.561 191.956,221.894 191,220.5C 189.455,215.953 189.121,211.287 190,206.5C 191.025,204.313 192.525,202.646 194.5,201.5 Z"/></g>
<g><path style="opacity:0.502" fill="#5d482f" d="M 118.5,212.5 C 119.167,212.5 119.833,212.5 120.5,212.5C 119.833,215.167 119.167,215.167 118.5,212.5 Z"/></g>
<g><path style="opacity:1" fill="#a78055" d="M 175.5,220.5 C 180.267,220.191 184.934,220.691 189.5,222C 192.311,225.294 191.978,228.294 188.5,231C 183.5,231.667 178.5,231.667 173.5,231C 169.663,226.79 170.33,223.29 175.5,220.5 Z"/></g>
<g><path style="opacity:1" fill="#a78055" d="M 203.5,220.5 C 208.267,220.191 212.934,220.691 217.5,222C 220.405,225.374 220.072,228.374 216.5,231C 211.5,231.667 206.5,231.667 201.5,231C 197.326,226.535 197.992,223.035 203.5,220.5 Z"/></g>
<g><path style="opacity:1" fill="#a78055" d="M 193.5,229.5 C 196.099,229.549 198.266,230.549 200,232.5C 200.667,237.5 200.667,242.5 200,247.5C 197.294,250.978 194.294,251.311 191,248.5C 189.445,243.618 189.112,238.618 190,233.5C 190.69,231.65 191.856,230.316 193.5,229.5 Z"/></g>
</svg>
