<?xml version="1.0" encoding="UTF-8"?>
<!DOCTYPE svg PUBLIC "-//W3C//DTD SVG 1.1//EN" "http://www.w3.org/Graphics/SVG/1.1/DTD/svg11.dtd">
<svg xmlns="http://www.w3.org/2000/svg" version="1.1" width="256px" height="256px" style="shape-rendering:geometricPrecision; text-rendering:geometricPrecision; image-rendering:optimizeQuality; fill-rule:evenodd; clip-rule:evenodd" xmlns:xlink="http://www.w3.org/1999/xlink">
<g><path style="opacity:1" fill="#ad8458" d="M 137.5,-0.5 C 142.167,-0.5 146.833,-0.5 151.5,-0.5C 177.154,17.637 202.987,35.637 229,53.5C 231.34,57.5554 232.007,61.8887 231,66.5C 227.738,72.0329 224.238,77.3662 220.5,82.5C 219.957,82.56 219.624,82.8933 219.5,83.5C 221.396,84.4656 223.396,84.7989 225.5,84.5C 232.247,87.9789 235.414,93.6456 235,101.5C 237.18,103.863 238.847,106.53 240,109.5C 240.5,122.162 240.667,134.829 240.5,147.5C 245.541,147.368 249.374,149.368 252,153.5C 252.667,169.167 252.667,184.833 252,200.5C 249.572,205.041 245.739,207.041 240.5,206.5C 240.667,219.504 240.5,232.504 240,245.5C 238.022,249.638 235.189,252.971 231.5,255.5C 158.167,255.5 84.8333,255.5 11.5,255.5C 7.81124,252.971 4.97791,249.638 3,245.5C 2.33333,200.167 2.33333,154.833 3,109.5C 4.11072,105.243 6.61072,102.243 10.5,100.5C 12.3435,98.7211 13.0102,96.3878 12.5,93.5C 13.1557,88.713 15.8223,85.5464 20.5,84C 24.8206,83.501 29.1539,83.3343 33.5,83.5C 35.0686,64.4809 36.9019,45.4809 39,26.5C 40.0608,23.4384 41.8941,20.9384 44.5,19C 50.7226,17.4185 57.0559,17.0852 63.5,18C 79.5143,19.5348 95.5143,21.2014 111.5,23C 115.072,25.6258 115.405,28.6258 112.5,32C 93.1241,31.3629 73.7907,29.8629 54.5,27.5C 52.8333,27.8333 51.1667,28.1667 49.5,28.5C 46.7064,51.4362 44.373,74.4362 42.5,97.5C 42.56,98.0431 42.8933,98.3764 43.5,98.5C 44.3857,97.675 44.719,96.675 44.5,95.5C 45.3355,82.1439 46.5022,68.8106 48,55.5C 49.025,49.4724 52.525,45.6391 58.5,44C 61.5,41 64.5,38 67.5,35C 69.0344,34.077 70.701,33.577 72.5,33.5C 82.8365,34.6367 93.1699,35.8033 103.5,37C 104.056,37.3826 104.389,37.8826 104.5,38.5C 104.5,40.5 104.5,42.5 104.5,44.5C 104.833,45.8333 105.167,45.8333 105.5,44.5C 106.167,44.5 106.5,44.1667 106.5,43.5C 116.056,28.279 126.389,13.6124 137.5,-0.5 Z M 219.5,58.5 C 219.833,59.5 220.5,60.1667 221.5,60.5C 221.509,62.3084 221.009,63.9751 220,65.5C 212.637,76.3465 205.137,87.0131 197.5,97.5C 196.833,97.5 196.5,97.1667 196.5,96.5C 199.99,91.5291 203.49,86.5291 207,81.5C 207.887,76.9283 207.22,72.595 205,68.5C 205.095,62.9104 204.095,57.5771 202,52.5C 187.175,41.6671 171.842,31.6671 156,22.5C 148.849,25.7214 141.349,27.2214 133.5,27C 131.667,28.8333 129.833,30.6667 128,32.5C 113.638,54.5799 98.8048,76.2465 83.5,97.5C 82.8333,97.5 82.5,97.1667 82.5,96.5C 102.367,67.2753 122.367,38.1087 142.5,9C 143.833,8.33333 145.167,8.33333 146.5,9C 170.516,26.005 194.849,42.505 219.5,58.5 Z M 184.5,96.5 C 180.936,97.4227 177.269,97.756 173.5,97.5C 171.049,83.5456 163.049,74.3789 149.5,70C 129.031,67.8975 116.031,76.7309 110.5,96.5C 105.869,97.6616 101.202,97.8283 96.5,97C 110.371,77.4265 123.871,57.5932 137,37.5C 143.335,37.0871 149.501,35.7538 155.5,33.5C 168.136,41.6372 180.636,49.9705 193,58.5C 193.235,65.0158 194.735,71.1825 197.5,77C 193.032,83.4426 188.699,89.9426 184.5,96.5 Z M 103.5,46.5 C 92.526,63.149 81.526,79.8156 70.5,96.5C 65.2599,97.4491 59.9265,97.7825 54.5,97.5C 55.4069,83.4311 56.9069,69.4311 59,55.5C 63.8949,52.8116 68.0616,49.3116 71.5,45C 82.167,45.1659 92.8336,45.6659 103.5,46.5 Z M 137.5,79.5 C 150.774,78.6282 159.44,84.4615 163.5,97C 149.504,97.4999 135.504,97.6666 121.5,97.5C 122.981,88.0213 128.315,82.0213 137.5,79.5 Z M 32.5,96.5 C 28.7316,97.7866 25.0649,97.7866 21.5,96.5C 21.9528,95.5416 22.6195,94.7083 23.5,94C 26.4816,93.502 29.4816,93.3354 32.5,93.5C 32.5,94.5 32.5,95.5 32.5,96.5 Z M 212.5,93.5 C 215.85,93.335 219.183,93.5017 222.5,94C 223.337,95.0113 223.67,96.1779 223.5,97.5C 219.154,97.6657 214.821,97.499 210.5,97C 211.823,96.1841 212.489,95.0174 212.5,93.5 Z M 17.5,107.5 C 86.8341,107.333 156.167,107.5 225.5,108C 227.286,108.785 228.786,109.951 230,111.5C 230.499,115.486 230.666,119.486 230.5,123.5C 157.833,123.5 85.1667,123.5 12.5,123.5C 12.3345,119.486 12.5012,115.486 13,111.5C 14.3968,109.93 15.8968,108.596 17.5,107.5 Z M 12.5,133.5 C 85.1667,133.5 157.833,133.5 230.5,133.5C 230.5,138.167 230.5,142.833 230.5,147.5C 219.162,147.333 207.828,147.5 196.5,148C 179.341,150.158 170.008,159.825 168.5,177C 169.011,190.676 175.678,200.009 188.5,205C 202.449,206.409 216.449,206.909 230.5,206.5C 230.5,211.167 230.5,215.833 230.5,220.5C 170.832,220.333 111.166,220.5 51.5,221C 47.5,224 47.5,227 51.5,230C 111.166,230.5 170.832,230.667 230.5,230.5C 230.666,234.514 230.499,238.514 230,242.5C 229.167,244 228,245.167 226.5,246C 156.5,246.667 86.5,246.667 16.5,246C 14.6667,245.5 13.5,244.333 13,242.5C 12.5012,238.514 12.3345,234.514 12.5,230.5C 19.175,230.666 25.8417,230.5 32.5,230C 36.5,227 36.5,224 32.5,221C 25.8417,220.5 19.175,220.334 12.5,220.5C 12.5,191.5 12.5,162.5 12.5,133.5 Z M 192.5,158.5 C 209.167,158.5 225.833,158.5 242.5,158.5C 242.5,171.167 242.5,183.833 242.5,196.5C 227.496,196.667 212.496,196.5 197.5,196C 184.12,194.397 177.953,186.897 179,173.5C 180.582,165.756 185.082,160.756 192.5,158.5 Z M 195.5,171.5 C 202.693,170.847 205.193,173.847 203,180.5C 199.277,184.311 195.944,183.977 193,179.5C 192.023,176.183 192.856,173.516 195.5,171.5 Z"/></g>
<g><path style="opacity:0.502" fill="#5d482f" d="M 104.5,38.5 C 105.167,40.1667 105.833,41.8333 106.5,43.5C 106.5,44.1667 106.167,44.5 105.5,44.5C 105.167,44.5 104.833,44.5 104.5,44.5C 104.5,42.5 104.5,40.5 104.5,38.5 Z"/></g>
<g><path style="opacity:0.753" fill="#75593b" d="M 219.5,58.5 C 220.833,58.5 221.5,59.1667 221.5,60.5C 220.5,60.1667 219.833,59.5 219.5,58.5 Z"/></g>
<g><path style="opacity:0.502" fill="#5d482f" d="M 220.5,82.5 C 222.167,83.1667 223.833,83.8333 225.5,84.5C 223.396,84.7989 221.396,84.4656 219.5,83.5C 219.624,82.8933 219.957,82.56 220.5,82.5 Z"/></g>
<g><path style="opacity:0.502" fill="#644c33" d="M 12.5,93.5 C 13.0102,96.3878 12.3435,98.7211 10.5,100.5C 11.0654,98.0479 11.7321,95.7146 12.5,93.5 Z"/></g>
<g><path style="opacity:0.502" fill="#5d482f" d="M 82.5,96.5 C 82.5,97.1667 82.8333,97.5 83.5,97.5C 83.44,98.0431 83.1067,98.3764 82.5,98.5C 81.2267,97.7435 81.2267,97.0768 82.5,96.5 Z"/></g>
<g><path style="opacity:0.502" fill="#5d482f" d="M 196.5,96.5 C 196.5,97.1667 196.833,97.5 197.5,97.5C 197.44,98.0431 197.107,98.3764 196.5,98.5C 195.227,97.7435 195.227,97.0768 196.5,96.5 Z"/></g>
<g><path style="opacity:0.502" fill="#654d33" d="M 21.5,96.5 C 25.0649,97.7866 28.7316,97.7866 32.5,96.5C 30.9522,97.7943 28.9522,98.4609 26.5,98.5C 24.5,98.1667 22.5,97.8333 20.5,97.5C 20.6236,96.8933 20.9569,96.56 21.5,96.5 Z"/></g>
<g><path style="opacity:0.753" fill="#72573a" d="M 44.5,95.5 C 44.719,96.675 44.3857,97.675 43.5,98.5C 42.8933,98.3764 42.56,98.0431 42.5,97.5C 43.1667,96.8333 43.8333,96.1667 44.5,95.5 Z"/></g>
<g><path style="opacity:0.502" fill="#614a31" d="M 70.5,96.5 C 68.2568,97.8117 65.5902,98.4783 62.5,98.5C 59.6445,98.4975 56.9779,98.1641 54.5,97.5C 59.9265,97.7825 65.2599,97.4491 70.5,96.5 Z"/></g>
<g><path style="opacity:0.502" fill="#624b32" d="M 184.5,96.5 C 183.129,97.7868 181.295,98.4535 179,98.5C 176.967,98.4944 175.134,98.1611 173.5,97.5C 177.269,97.756 180.936,97.4227 184.5,96.5 Z"/></g>
<g><path style="opacity:1" fill="#ae8559" d="M 195.5,160.5 C 204.461,160.31 210.628,164.31 214,172.5C 215.353,186.813 208.853,193.646 194.5,193C 182.527,187.874 179.36,179.374 185,167.5C 187.998,164.262 191.498,161.929 195.5,160.5 Z M 195.5,171.5 C 192.856,173.516 192.023,176.183 193,179.5C 195.944,183.977 199.277,184.311 203,180.5C 205.193,173.847 202.693,170.847 195.5,171.5 Z"/></g>
</svg>
